<svg xmlns="http://www.w3.org/2000/svg">

    <symbol id="icon-remove" viewBox="0 0 16 16">
      <title>Remove</title>
      <path id="Remove-2" data-name="Remove" d="M10.15,8l5.7-5.7a.5.5,0,0,0,0-.71L14.41.15a.5.5,0,0,0-.71,0L8,5.85,2.29.15a.48.48,0,0,0-.7,0L.15,1.59a.48.48,0,0,0,0,.7L5.85,8,.15,13.7a.5.5,0,0,0,0,.71l1.44,1.44a.5.5,0,0,0,.71,0L8,10.15l5.71,5.7a.48.48,0,0,0,.7,0l1.44-1.44a.48.48,0,0,0,0-.7Z"/>
    </symbol>
    <symbol id="icon-reload" viewBox="0 0 18 18">
      <title>Reload</title>
      <path id="Reload-2" data-name="Reload" d="M7.16.18a9,9,0,0,1,8.06,2.31l2-2A.45.45,0,0,1,18,.8V7.55H11.25a.45.45,0,0,1-.32-.77l2.23-2.23a6.1,6.1,0,1,0-.24,9.12.57.57,0,0,1,.77,0L15,15a.56.56,0,0,1,0,.82A9,9,0,1,1,7.16.18Z"/>
    </symbol>
    <symbol id="icon-about" viewBox="0 0 18 18">
      <title>About</title>
      <path id="About-2" data-name="About" d="M9,0a9,9,0,1,0,9,9A9,9,0,0,0,9,0ZM8,2.84a1.59,1.59,0,0,1,2.28,0A1.59,1.59,0,0,1,10.73,4a1.56,1.56,0,0,1-.48,1.15,1.52,1.52,0,0,1-1.13.48A1.56,1.56,0,0,1,8,5.13,1.61,1.61,0,0,1,7.5,4,1.58,1.58,0,0,1,8,2.84Zm3.77,11.92H6.25v-.95h.21q.76,0,1-.27a1.55,1.55,0,0,0,.2-.92V9.94A1.52,1.52,0,0,0,7.42,9q-.21-.27-1-.27H6.25v-1l4.28-.68v5.51a1.57,1.57,0,0,0,.21.94c.15.17.48.25,1,.25Z"/>
    </symbol>
    <symbol id="icon-check" viewBox="0 0 12 9">
      <title>Check</title>
      <path id="check-2" data-name="check" d="M11.86,1.62,10.5.16a.51.51,0,0,0-.71,0L4.51,5.07,2.22,2.91a.48.48,0,0,0-.7,0L.14,4.37a.5.5,0,0,0,0,.71l4,3.78a.5.5,0,0,0,.68,0l7-6.55A.49.49,0,0,0,11.86,1.62Z"/>
    </symbol>
    <symbol id="icon-dropdown-caret" viewBox="0 0 12 10">
      <title>Drowndown Caret</title>
      <polygon id="Dropdown_Caret-2" data-name="Dropdown Caret" points="6 10 12 0 0 0 6 10"/>
    </symbol>
    <symbol id="icon-rescale" viewBox="0 0 20 20">
      <title>Rescale</title>
      <path id="Rescale-2" data-name="Rescale" d="M16.26,6.26a.45.45,0,0,0-.76.32V8.75H11.25V4.5h2.17a.45.45,0,0,0,.32-.76L10,0,6.26,3.74a.45.45,0,0,0,.32.76H8.75V8.75H4.5V6.58a.45.45,0,0,0-.76-.32L0,10l3.74,3.74a.45.45,0,0,0,.76-.32V11.25H8.75V15.5H6.58a.45.45,0,0,0-.32.76L10,20l3.74-3.74a.45.45,0,0,0-.32-.76H11.25V11.25H15.5v2.17a.45.45,0,0,0,.76.32L20,10Z"/>
    </symbol>
    <symbol id="icon-lightbulb" viewBox="0 0 71 81">
      <title>Lightbulb</title>
        <g id="CC_Icon">
          <path class="st0" fill="#E75300" d="M62.5,30c4.3,3.2,8.4,7.9,8.2,10.5c-0.1,1.5-5.4,6.9-11.2,9c1.4,5.3,1.5,11.6-0.2,13.5
            c-0.9,1-7.7,1.7-13.4-0.2c0.4-1.4,0.6-2.8,0.6-4.3c0.2-7,8.9-11.6,8.9-23.9c0-11.6-11-20-20.1-20s-20.1,8.4-20.1,20
            c0,12.3,8.7,16.9,8.9,23.9c0,1.6,0.3,3.2,0.8,4.8c-4.5,2-9.9,3-11.8,1.7c-1.2-0.8-3.1-8.3-1.9-14.6C6.2,49,0.8,46,0,43.5
            c-0.4-1.4,2.7-8.4,7.6-12.5c-3-4.5-5.3-10.4-4.3-12.7c0.6-1.4,7.3-4.6,13.6-4.6c0.4-5.4,2.4-11.4,4.6-12.6
            c1.3-0.7,8.5,1.3,13.2,5.6c3.7-3.9,8.9-7.2,11.3-6.6c1.4,0.3,5.7,6.7,6.7,13.1c5.2-0.5,11.3,0.5,12.8,2.5
            C66.4,16.7,65.7,24.4,62.5,30z"/>
          <path class="st1" fill="#AD441D" d="M42.3,42.9c4.3,0.5,8.7-3.2,13.2-0.5c1.6,1,3,3.9,3.8,7.1c-1.9,0.8-4,1-6.1,0.7C49.5,49.6,45.2,46.1,42.3,42.9
            z M25.1,38.2c-2.5,3.7-1.7,9.4-6.2,12.1c-1.6,1-4.7,0.8-7.9-0.1c0.3-2.1,1.2-4.2,2.5-5.9C15.9,41.4,21,39.3,25.1,38.2z M25.7,31
            c-4.2,1.1-7.2,6.1-12.2,5.2c-1.9-0.3-4.1-2.5-5.9-5.4c1.6-1.4,3.5-2.4,5.5-2.8C16.7,27.3,21.9,29,25.7,31z M30.6,25.8
            c-3.9-1.9-9.2-0.1-12.5-4.2c-1.2-1.5-1.5-4.7-1.3-8c2.1-0.1,4.2,0.5,6,1.5C26,16.9,28.9,21.8,30.6,25.8z M37.6,25.1
            c-1.8-4.2-7-6.3-7-11.6c0-1.9,1.7-4.6,4-7c1.7,1.4,2.9,3.2,3.7,5.2C39.6,15.3,38.8,20.9,37.6,25.1L37.6,25.1z M45.2,36.2
            c3.6-2.5,4.7-8.2,9.8-9.1c1.9-0.3,4.7,0.9,7.3,2.9c-1,1.9-2.5,3.5-4.2,4.7C54.9,36.6,49.4,36.8,45.2,36.2z M52.6,13
            c0.4,2.1,0.2,4.3-0.4,6.4c-1.2,3.7-5.3,7.4-8.9,9.9c1.2-4.4-1.5-9.4,1.8-13.5C46.4,14.2,49.3,13.3,52.6,13z"/>
          <path class="st2" fill="#FFD26C" d="M27.7,66.1c-0.9-0.3-1.6-0.8-2.1-1.6c-1-1.8-1.5-3.9-1.5-6c-0.2-7-8.9-11.6-8.9-23.9c0-11.6,11-20,20.1-20
            s20.1,8.4,20.1,20c0,12.3-8.7,16.9-8.9,23.9c0.1,2.2-0.5,4.3-1.6,6.2c-0.5,0.7-1.1,1.2-1.9,1.5h-0.2L27.7,66.1L27.7,66.1z"/>
          <path class="bulb-st3" fill="#FFFFFF" d="M39.2,37.6c0.3-0.4,2.5,0.1,4.5-0.5c0.6-0.2,1.1-0.5,1.6-0.8c-3.2-0.4-5.6-1.2-5.7-1.9c0-0.5,2-1.5,3.1-3.5
            c0.3-0.6,0.5-1.1,0.7-1.7c-2.7,1.8-5,2.8-5.5,2.3s0.6-2.5,0.3-4.7c-0.1-0.6-0.3-1.2-0.5-1.7c-0.9,3.1-2.1,5.5-2.8,5.5
            c-0.5,0-1.1-2.3-2.7-3.8c-0.5-0.4-1-0.7-1.5-1c1.3,3,1.8,5.6,1.2,6.1c-0.4,0.3-2.3-1-4.4-1.1c-0.6,0-1.2,0.1-1.8,0.2
            c2.8,1.5,4.8,3,4.7,3.9c-0.1,0.5-2.4,0.7-4,2.1c-0.5,0.4-0.9,0.8-1.2,1.3c3.1-0.7,5.6-0.9,6-0.2c0.2,0.5-1.4,2.1-1.8,4.3
            c-0.1,0.6-0.1,1.2-0.1,1.8c1.9-2.6,3.8-4.4,4.4-4.2s0.3,2.5,1.3,4.5c0.3,0.5,0.7,1.1,1.1,1.5c-0.2-3.2,0.2-5.9,0.8-6.1
            s1.8,1.7,3.8,2.5c0.5,0.2,1.1,0.4,1.7,0.4C40.2,40.5,38.8,38.2,39.2,37.6z"/>
          <path class="st4" fill="#FFC656" d="M43.9,62c-0.6-0.3-1.1-0.6-1.6-0.9c-0.9-0.6-1.8-1.4-2.5-2.2C37.4,56,36.3,50.4,36,46c3,3.2,8.6,3.3,10.4,8.4
            c0.1,0.2,0.1,0.3,0.1,0.5l0.3,1.1c-0.2,0.8-0.4,1.6-0.4,2.5c-0.1,1.5-0.3,2.9-0.6,4.4C45.2,62.6,44.6,62.3,43.9,62z M29.2,44.2
            c0.3,4.5,4.5,8.3,2.8,13.4c-0.5,1.4-2,2.8-4,4.1c-0.7,0.5-1.4,0.8-2.1,1.1c-0.3,0.1-0.7,0.3-1,0.5c-0.5-1.5-0.7-3.2-0.8-4.8v-1.9
            c0-0.4,0-0.9,0.1-1.3C24.7,51.7,26.9,47.3,29.2,44.2z M50.6,22.4c-2,2.7-4.5,5.1-7.3,6.9c1.1-3.9-0.9-8.3,0.9-12.1
            C46.7,18.5,48.9,20.2,50.6,22.4z M45.2,36.2c3.3-2.3,4.5-7.3,8.6-8.8c1,2.3,1.5,4.7,1.5,7.2v1.2C52,36.6,48.6,36.7,45.2,36.2z
            M37.6,25.2c-1.6-3.7-5.8-5.7-6.8-9.8c1.5-0.4,3-0.6,4.5-0.6c1.2,0,2.5,0.1,3.7,0.4C39.1,18.5,38.6,21.9,37.6,25.2z M30.6,25.8
            c-3.4-1.7-7.9-0.5-11.2-2.9c1.7-2.2,3.8-4,6.2-5.4C27.7,20,29.4,22.8,30.6,25.8L30.6,25.8z M25.7,31.1c-3.7,1-6.4,4.9-10.4,5.3
            c0-0.5-0.1-1.1-0.1-1.6c0-2.3,0.5-4.6,1.3-6.7C19.8,28.5,22.9,29.5,25.7,31.1L25.7,31.1z M25.1,38.3c-2.3,3.2-1.8,8.3-5,11.2
            c-1.6-2.3-2.8-4.9-3.8-7.5C19.1,40.3,22,39,25.1,38.3L25.1,38.3z M42.3,42.9c3.9,0.4,7.9-2.5,11.9-1.1c-0.9,2.7-2.2,5.2-3.8,7.5
            C47.4,47.7,44.7,45.5,42.3,42.9z"/>
          <path class="st5" fill="#00758D" d="M42.7,73.1v1c0.8,0.1,1.3,0.7,1.3,1.5c0.1,0.7-0.5,1.3-1.2,1.4h-0.1l-4.9,1.3c0.3,0.3,0.5,0.8,0.5,1.2
            c0,0.8-0.5,1.4-1.3,1.5h-3.6c-0.8-0.1-1.4-0.9-1.3-1.8c0.1-0.4,0.3-0.8,0.7-1L27.7,77c-0.8-0.2-1.3-1-1.2-1.8
            c0.1-0.6,0.6-1,1.2-1.2h12.1v-0.3L27.7,73c-0.8-0.2-1.3-1-1.2-1.8c0.1-0.6,0.6-1,1.2-1.2h12v-0.3l-12-0.7c-0.8-0.2-1.3-1-1.2-1.8
            c0.1-0.6,0.6-1,1.2-1.2h15c0.8,0.2,1.3,1,1.2,1.8c-0.1,0.6-0.6,1-1.2,1.2h-0.1v1h0.1c0.8,0.1,1.3,0.7,1.3,1.5
            C44,72.4,43.5,73.1,42.7,73.1z"/>
        </g>
    </symbol>
    <symbol id="icon-logo" viewBox="0 0 255 81">
      <title>Logo</title>
        <style type="text/css">
          .st0{fill:#231F20;}
          .st1{fill:#E75300;}
          .st2{fill:#AD441D;}
          .st3{fill:#FFD26C;}
          .st4{fill:#FFFFFF;}
          .st5{fill:#FFC656;}
          .st6{fill:#00758D;}
        </style>
        <path id="CC_The_Concord_Consortium" class="st0" d="M228.4,25.6c0.5-1.3,2.6-3.5,4.6-3.5c0.5,0,0.9,0.1,1.4,0.2v4.5
          c-0.5-0.2-1-0.3-1.5-0.3c-2.9,0-4.4,3.1-4.4,6.4v7.5h-4.2V26h-2.4v-3.7h3.8c1.4,0,2.7,0.7,2.7,2.2L228.4,25.6L228.4,25.6z
          M168.1,24.5c1.4-1.7,3.5-2.7,5.7-2.6c4.1,0,6,2.5,6,7v7.6h2.2v3.6h-3.8c-1.4,0-2.6-0.7-2.6-2.2v-8.4c0-2.3-0.4-3.7-2.5-3.7
          c-2.9,0-4.9,2.7-4.9,5.9v8.4h-4.3V25.9h-2.2v-3.7h3.8c1.2-0.2,2.3,0.5,2.6,1.7C168.1,24.1,168.1,24.3,168.1,24.5z M86,20.2
          c0.7,0,1.4,0.5,1.4,1.3c0,0.1,0,0.2,0,0.2v2.5h-2.5v-1.8h-2.2v13H80V22.6h-2.2v1.6h-2.4v-2.4c0-0.9,0.4-1.7,1.4-1.7H86V20.2z
          M91.8,25.7c0.9-1,2.1-1.5,3.4-1.5c2.6,0,3.8,1.5,3.8,4.4v4.8h1.6v2.3h-4.2v-6.6c0-1.4-0.3-2.2-1.6-2.2c-1.7,0-3,1.5-3,3.7v5.3h-2.6
          V22.6h-0.9v-2.4h3.6L91.8,25.7L91.8,25.7z M106.9,35.8c-3.1,0.1-5.6-2.4-5.7-5.5c0-0.1,0-0.3,0-0.4c0-3.5,2.3-5.9,5.4-5.9
          s4.7,2.4,4.7,5.3c0,0.3-0.1,1.1-0.1,1.1h-7.3c0.1,1.6,1.5,2.8,3.1,2.8c1.2,0,2.3-0.6,3.1-1.4l1.2,2.1c-0.1,0.2-0.3,0.3-0.5,0.4
          C109.7,35.3,108.4,35.8,106.9,35.8z M106.6,26.4c-1.2,0-2.3,0.8-2.5,2h4.6C108.7,27.3,107.7,26.4,106.6,26.4L106.6,26.4z
          M129.5,40.3c-7.2,0-12.4-5.8-12.4-13s5.3-12.7,12.2-12.7c2.9,0,9.3,1.1,9.3,5.3v3.5h-4.1V21c0-1.8-3.8-2.2-5-2.2
          c-4.6,0-7.9,3.5-7.9,8.5c0,5.3,3.5,9,8.1,9c2.8,0.1,5.6-1.2,7.3-3.5l2.1,3C136.9,38.7,133.3,40.4,129.5,40.3z M150.6,40.7
          c-5.1,0.1-9.3-4-9.4-9.1c0-0.1,0-0.3,0-0.4c0-5.2,4.2-9.4,9.4-9.4s9.4,4.2,9.4,9.4c0.1,5.2-4,9.4-9.1,9.5
          C150.8,40.7,150.7,40.7,150.6,40.7L150.6,40.7z M150.6,25.7c-2.9,0-5.1,2.4-5.1,5.3c0,0.1,0,0.2,0,0.2c-0.2,2.9,2,5.3,4.9,5.5
          c0.1,0,0.2,0,0.2,0c2.9-0.1,5.2-2.5,5.1-5.4v-0.1c0.2-2.9-2-5.3-4.8-5.5C150.8,25.7,150.7,25.7,150.6,25.7L150.6,25.7z M193,40.7
          c-5,0.2-9.2-3.8-9.4-8.8c0-0.2,0-0.4,0-0.6c0-5.6,4-9.5,9.2-9.5c2.5,0,7,1,7,4.5v1.8h-3.9v-1c0-1-2.3-1.3-3-1.3c-3,0-5,2.1-5,5.5
          c0,3.6,2.3,5.5,5.2,5.5c2.4,0,3.7-1.1,5.4-2.5l1.7,3.5C198.3,39.6,195.7,40.6,193,40.7L193,40.7z M210.8,40.7
          c-5.1,0.1-9.3-4-9.4-9.1c0-0.1,0-0.3,0-0.4c0-5.2,4.2-9.4,9.4-9.4s9.4,4.2,9.4,9.4c0.1,5.2-4,9.4-9.1,9.5
          C211,40.7,210.9,40.7,210.8,40.7L210.8,40.7z M210.8,25.7c-2.9,0-5.1,2.4-5.1,5.3c0,0.1,0,0.2,0,0.2c-0.2,2.9,2,5.3,4.9,5.5
          c0.1,0,0.2,0,0.2,0c2.9-0.1,5.2-2.5,5.1-5.4v-0.1c0.2-2.9-2-5.3-4.8-5.5C211,25.7,210.9,25.7,210.8,25.7L210.8,25.7z M248.3,23.5
          v-4.3h-2v-3.7h6.2v21h2.3v3.6H251c-1.1,0.1-2.2-0.6-2.5-1.7c-1.3,1.4-3.1,2.2-5,2.1c-4.8,0-7.7-4-7.7-9.4c0-5.7,3.2-9.4,8-9.4
          C245.5,21.8,247.1,22.4,248.3,23.5L248.3,23.5z M244.3,25.8c-2.2,0-4.2,1.8-4.2,5.5c0,3.5,1.8,5.5,4.1,5.5c2.1,0,4.2-1.5,4.2-5.5
          C248.4,28.2,246.9,25.8,244.3,25.8L244.3,25.8z M122,51.1c1.3-1.6,3.3-2.6,5.4-2.5c3.9,0,5.6,2.3,5.6,6.6v7.2h2.4v3.5h-4
          c-1.4,0-2.5-0.7-2.5-2v-8c0-2.2-0.4-3.5-2.3-3.5c-2.7,0-4.6,2.5-4.6,5.6v8h-4V52.5h-2.1V49h3.6C121.1,49,122,49.7,122,51.1z
          M106.4,66.4c-4.9,0-8.9-3.9-9-8.8c0-4.9,3.9-8.9,8.8-9c4.9,0,8.9,3.9,9,8.8v0.1c0.1,4.8-3.8,8.8-8.6,8.9
          C106.6,66.4,106.5,66.4,106.4,66.4z M106.4,52.4c-2.7,0.1-4.8,2.3-4.7,4.9c0,0.1,0,0.1,0,0.2c0,3,2.1,5.2,4.7,5.2s4.7-2.2,4.7-5.2
          C111.3,54.8,109.2,52.5,106.4,52.4C106.5,52.4,106.5,52.4,106.4,52.4L106.4,52.4z M142.5,66.4c-2.4-0.1-4.7-1.3-6.3-3.2l2.2-2.7
          c1,1.4,2.5,2.2,4.2,2.3c1.7,0,2.6-0.7,2.6-1.5c0-1.4-2.5-2-3.5-2.3c-2.2-0.8-5.1-2-5.1-5.4c0-3.7,3.5-5,6.2-5c2.1,0,5.8,0.9,5.8,3.8
          v1.7H145v-0.8c0-0.4-0.7-1.1-2.2-1.1s-2.2,0.6-2.2,1.3c0,1.3,2.3,1.9,3.2,2.2c2.3,0.8,5.4,1.9,5.4,5.3
          C149.2,64.7,146.1,66.4,142.5,66.4z M160.2,66.4c-4.9,0-8.9-3.9-9-8.8c0-4.9,3.9-8.9,8.8-9c4.9,0,8.9,3.9,9,8.8v0.1
          c0.1,4.8-3.8,8.8-8.6,8.9C160.4,66.4,160.3,66.4,160.2,66.4z M160.2,52.4c-2.7,0.1-4.8,2.3-4.7,4.9c0,0.1,0,0.1,0,0.2
          c0,3,2.1,5.2,4.7,5.2s4.7-2.2,4.7-5.2c0.2-2.6-1.8-4.9-4.4-5.1C160.5,52.4,160.3,52.4,160.2,52.4L160.2,52.4z M176.7,52.2
          c0.5-1.2,2.5-3.3,4.3-3.3c0.4,0,1.3,0.1,1.3,0.1v4.1c-0.5-0.1-0.9-0.2-1.4-0.2c-2.8,0-4.1,2.9-4.1,6V66h-4V52.5h-2.5V49h4
          c1.4,0,2.5,0.7,2.5,2C176.7,51.4,176.7,51.8,176.7,52.2L176.7,52.2z M191.9,66.2c-2,0-6.4-0.7-6.4-6.5v-7.2h-2.2V49h2.2v-4.4h3.9V49
          h3.7v3.5h-3.7v6.9c0,2.7,1.7,3,2.7,3c0.4,0,1.2-0.1,1.2-0.1V66C192.9,66.1,192.4,66.2,191.9,66.2z M202.2,46.9h-4.1v-4.2h4.1V46.9z
          M204.1,66h-4.2c-1,0-1.8-0.8-1.8-2.5v-11h-2.5V49h4.1c1.2-0.1,2.3,0.7,2.4,1.9c0,0.2,0,0.4,0,0.6v10.9h2V66z M218.5,64
          c-1.3,1.6-3.3,2.5-5.3,2.4c-3.7,0-5.6-2.2-5.6-6.6v-7.3h-2.1V49h4.1c1.1,0,2,0.9,2,1.9v8.2c0,2.1,0.4,3.5,2.3,3.5
          c2.6,0,4.4-2.6,4.4-5.7V49h4v13.4c0,0.1,0,0.1,0.1,0.1h1.9v3.4h-3.5c-1.1,0.2-2.1-0.6-2.3-1.7C218.5,64.1,218.5,64,218.5,64
          L218.5,64z M232.5,51.2c1.2-1.5,3-2.5,4.9-2.5c2.3,0,3.9,0.9,4.7,2.9c1.2-1.8,3.2-2.9,5.4-2.9c3.8,0,5.5,2.3,5.5,6.6v7.2h1.9v3.4h-6
          v-10c0-2.2-0.4-3.5-2.2-3.5c-2.4,0-4,2.6-4,5.7v7.8h-4v-10c0-2.1-0.3-3.5-2.1-3.5c-2.4,0-4.1,2.7-4.1,5.8v7.7h-4V52.5H226V49h4
          c1.2-0.2,2.3,0.6,2.5,1.8C232.5,51,232.5,51.1,232.5,51.2L232.5,51.2z M86.7,66.3c-6.7,0-11.6-5.4-11.6-12.2s5-11.9,11.5-11.9
          c2.7,0,8.7,1,8.7,5v3.2h-3.9v-2.3c0-1.7-3.6-2.1-4.7-2.1c-4.3,0-7.4,3.2-7.4,7.9c0,5,3.2,8.4,7.6,8.4c2.7,0.1,5.2-1.1,6.8-3.2l2,2.8
          C95.7,62,93.2,66.3,86.7,66.3z"/>
        <g id="CC_Icon">
          <path class="st1" d="M62.5,30c4.3,3.2,8.4,7.9,8.2,10.5c-0.1,1.5-5.4,6.9-11.2,9c1.4,5.3,1.5,11.6-0.2,13.5
            c-0.9,1-7.7,1.7-13.4-0.2c0.4-1.4,0.6-2.8,0.6-4.3c0.2-7,8.9-11.6,8.9-23.9c0-11.6-11-20-20.1-20s-20.1,8.4-20.1,20
            c0,12.3,8.7,16.9,8.9,23.9c0,1.6,0.3,3.2,0.8,4.8c-4.5,2-9.9,3-11.8,1.7c-1.2-0.8-3.1-8.3-1.9-14.6C6.2,49,0.8,46,0,43.5
            c-0.4-1.4,2.7-8.4,7.6-12.5c-3-4.5-5.3-10.4-4.3-12.7c0.6-1.4,7.3-4.6,13.6-4.6c0.4-5.4,2.4-11.4,4.6-12.6
            c1.3-0.7,8.5,1.3,13.2,5.6c3.7-3.9,8.9-7.2,11.3-6.6c1.4,0.3,5.7,6.7,6.7,13.1c5.2-0.5,11.3,0.5,12.8,2.5
            C66.4,16.7,65.7,24.4,62.5,30z"/>
          <path class="st2" d="M42.3,42.9c4.3,0.5,8.7-3.2,13.2-0.5c1.6,1,3,3.9,3.8,7.1c-1.9,0.8-4,1-6.1,0.7C49.5,49.6,45.2,46.1,42.3,42.9
            z M25.1,38.2c-2.5,3.7-1.7,9.4-6.2,12.1c-1.6,1-4.7,0.8-7.9-0.1c0.3-2.1,1.2-4.2,2.5-5.9C15.9,41.4,21,39.3,25.1,38.2z M25.7,31
            c-4.2,1.1-7.2,6.1-12.2,5.2c-1.9-0.3-4.1-2.5-5.9-5.4c1.6-1.4,3.5-2.4,5.5-2.8C16.7,27.3,21.9,29,25.7,31z M30.6,25.8
            c-3.9-1.9-9.2-0.1-12.5-4.2c-1.2-1.5-1.5-4.7-1.3-8c2.1-0.1,4.2,0.5,6,1.5C26,16.9,28.9,21.8,30.6,25.8z M37.6,25.1
            c-1.8-4.2-7-6.3-7-11.6c0-1.9,1.7-4.6,4-7c1.7,1.4,2.9,3.2,3.7,5.2C39.6,15.3,38.8,20.9,37.6,25.1L37.6,25.1z M45.2,36.2
            c3.6-2.5,4.7-8.2,9.8-9.1c1.9-0.3,4.7,0.9,7.3,2.9c-1,1.9-2.5,3.5-4.2,4.7C54.9,36.6,49.4,36.8,45.2,36.2z M52.6,13
            c0.4,2.1,0.2,4.3-0.4,6.4c-1.2,3.7-5.3,7.4-8.9,9.9c1.2-4.4-1.5-9.4,1.8-13.5C46.4,14.2,49.3,13.3,52.6,13z"/>
          <path class="st3" d="M27.7,66.1c-0.9-0.3-1.6-0.8-2.1-1.6c-1-1.8-1.5-3.9-1.5-6c-0.2-7-8.9-11.6-8.9-23.9c0-11.6,11-20,20.1-20
            s20.1,8.4,20.1,20c0,12.3-8.7,16.9-8.9,23.9c0.1,2.2-0.5,4.3-1.6,6.2c-0.5,0.7-1.1,1.2-1.9,1.5h-0.2L27.7,66.1L27.7,66.1z"/>
          <path class="st4" d="M39.2,37.6c0.3-0.4,2.5,0.1,4.5-0.5c0.6-0.2,1.1-0.5,1.6-0.8c-3.2-0.4-5.6-1.2-5.7-1.9c0-0.5,2-1.5,3.1-3.5
            c0.3-0.6,0.5-1.1,0.7-1.7c-2.7,1.8-5,2.8-5.5,2.3s0.6-2.5,0.3-4.7c-0.1-0.6-0.3-1.2-0.5-1.7c-0.9,3.1-2.1,5.5-2.8,5.5
            c-0.5,0-1.1-2.3-2.7-3.8c-0.5-0.4-1-0.7-1.5-1c1.3,3,1.8,5.6,1.2,6.1c-0.4,0.3-2.3-1-4.4-1.1c-0.6,0-1.2,0.1-1.8,0.2
            c2.8,1.5,4.8,3,4.7,3.9c-0.1,0.5-2.4,0.7-4,2.1c-0.5,0.4-0.9,0.8-1.2,1.3c3.1-0.7,5.6-0.9,6-0.2c0.2,0.5-1.4,2.1-1.8,4.3
            c-0.1,0.6-0.1,1.2-0.1,1.8c1.9-2.6,3.8-4.4,4.4-4.2s0.3,2.5,1.3,4.5c0.3,0.5,0.7,1.1,1.1,1.5c-0.2-3.2,0.2-5.9,0.8-6.1
            s1.8,1.7,3.8,2.5c0.5,0.2,1.1,0.4,1.7,0.4C40.2,40.5,38.8,38.2,39.2,37.6z"/>
          <path class="st5" d="M43.9,62c-0.6-0.3-1.1-0.6-1.6-0.9c-0.9-0.6-1.8-1.4-2.5-2.2C37.4,56,36.3,50.4,36,46c3,3.2,8.6,3.3,10.4,8.4
            c0.1,0.2,0.1,0.3,0.1,0.5l0.3,1.1c-0.2,0.8-0.4,1.6-0.4,2.5c-0.1,1.5-0.3,2.9-0.6,4.4C45.2,62.6,44.6,62.3,43.9,62z M29.2,44.2
            c0.3,4.5,4.5,8.3,2.8,13.4c-0.5,1.4-2,2.8-4,4.1c-0.7,0.5-1.4,0.8-2.1,1.1c-0.3,0.1-0.7,0.3-1,0.5c-0.5-1.5-0.7-3.2-0.8-4.8v-1.9
            c0-0.4,0-0.9,0.1-1.3C24.7,51.7,26.9,47.3,29.2,44.2z M50.6,22.4c-2,2.7-4.5,5.1-7.3,6.9c1.1-3.9-0.9-8.3,0.9-12.1
            C46.7,18.5,48.9,20.2,50.6,22.4z M45.2,36.2c3.3-2.3,4.5-7.3,8.6-8.8c1,2.3,1.5,4.7,1.5,7.2v1.2C52,36.6,48.6,36.7,45.2,36.2z
            M37.6,25.2c-1.6-3.7-5.8-5.7-6.8-9.8c1.5-0.4,3-0.6,4.5-0.6c1.2,0,2.5,0.1,3.7,0.4C39.1,18.5,38.6,21.9,37.6,25.2z M30.6,25.8
            c-3.4-1.7-7.9-0.5-11.2-2.9c1.7-2.2,3.8-4,6.2-5.4C27.7,20,29.4,22.8,30.6,25.8L30.6,25.8z M25.7,31.1c-3.7,1-6.4,4.9-10.4,5.3
            c0-0.5-0.1-1.1-0.1-1.6c0-2.3,0.5-4.6,1.3-6.7C19.8,28.5,22.9,29.5,25.7,31.1L25.7,31.1z M25.1,38.3c-2.3,3.2-1.8,8.3-5,11.2
            c-1.6-2.3-2.8-4.9-3.8-7.5C19.1,40.3,22,39,25.1,38.3L25.1,38.3z M42.3,42.9c3.9,0.4,7.9-2.5,11.9-1.1c-0.9,2.7-2.2,5.2-3.8,7.5
            C47.4,47.7,44.7,45.5,42.3,42.9z"/>
          <path class="st6" d="M42.7,73.1v1c0.8,0.1,1.3,0.7,1.3,1.5c0.1,0.7-0.5,1.3-1.2,1.4h-0.1l-4.9,1.3c0.3,0.3,0.5,0.8,0.5,1.2
            c0,0.8-0.5,1.4-1.3,1.5h-3.6c-0.8-0.1-1.4-0.9-1.3-1.8c0.1-0.4,0.3-0.8,0.7-1L27.7,77c-0.8-0.2-1.3-1-1.2-1.8
            c0.1-0.6,0.6-1,1.2-1.2h12.1v-0.3L27.7,73c-0.8-0.2-1.3-1-1.2-1.8c0.1-0.6,0.6-1,1.2-1.2h12v-0.3l-12-0.7c-0.8-0.2-1.3-1-1.2-1.8
            c0.1-0.6,0.6-1,1.2-1.2h15c0.8,0.2,1.3,1,1.2,1.8c-0.1,0.6-0.6,1-1.2,1.2h-0.1v1h0.1c0.8,0.1,1.3,0.7,1.3,1.5
            C44,72.4,43.5,73.1,42.7,73.1z"/>
        </g>
    </symbol>

</svg>